<svg width="26" height="26" viewBox="0 0 26 26" fill="none" xmlns="http://www.w3.org/2000/svg">
<path d="M15.0961 25.8308C14.9878 25.8485 14.8791 25.8647 14.77 25.8796C14.8791 25.8647 14.9878 25.8485 15.0961 25.8308Z" fill="black"/>
<path d="M15.3562 25.7864C15.3045 25.7959 15.2527 25.8046 15.2009 25.8136C15.2527 25.8046 15.3045 25.7959 15.3562 25.7864Z" fill="black"/>
<path d="M14.4797 25.9158C14.3529 25.9301 14.2254 25.9427 14.0974 25.9535C14.2254 25.9427 14.3529 25.9301 14.4797 25.9158Z" fill="black"/>
<path d="M14.7294 25.8853C14.6685 25.8934 14.6072 25.9009 14.5461 25.9081C14.6072 25.9009 14.6685 25.8934 14.7294 25.8853Z" fill="black"/>
<path d="M15.71 25.7161C15.6644 25.7258 15.6186 25.7355 15.5728 25.7448C15.6186 25.7355 15.6644 25.7258 15.71 25.7161Z" fill="black"/>
<path d="M16.5885 25.498C16.5516 25.5086 16.5147 25.5185 16.4778 25.5288C16.5147 25.5185 16.5516 25.5086 16.5885 25.498Z" fill="black"/>
<path d="M16.3228 25.5706C16.2827 25.5811 16.2424 25.5918 16.2021 25.6019C16.2424 25.5918 16.2827 25.5813 16.3228 25.5706Z" fill="black"/>
<path d="M15.9753 25.6575C15.9329 25.6674 15.89 25.6767 15.8472 25.6862C15.89 25.6767 15.9329 25.6674 15.9753 25.6575Z" fill="black"/>
<path d="M14.0932 25.9539C14.0248 25.9596 13.9563 25.9648 13.8877 25.9693C13.9563 25.9648 14.0248 25.9596 14.0932 25.9539Z" fill="black"/>
<path d="M26 13C26 5.8214 20.1786 0 13 0C5.8214 0 0 5.8214 0 13C0 20.1786 5.8214 26 13 26C13.0764 26 13.1523 25.9984 13.2285 25.997V15.8771H10.4355V12.6221H13.2285V10.2269C13.2285 7.44897 14.9243 5.93704 17.4023 5.93704C18.5889 5.93704 19.6089 6.02551 19.9062 6.06499V8.96825H18.1975C16.8495 8.96825 16.5884 9.60896 16.5884 10.549V12.6221H19.8118L19.3917 15.8771H16.5884V25.4977C22.0222 23.94 26 18.9339 26 13Z" fill="white"/>
<path d="M13.8589 25.9709C13.7236 25.9797 13.5877 25.9866 13.4514 25.9912C13.5877 25.9866 13.7236 25.9797 13.8589 25.9709Z" fill="black"/>
<path d="M13.4446 25.9917C13.3728 25.9941 13.3008 25.9959 13.2288 25.9971C13.3008 25.9959 13.3728 25.9941 13.4446 25.9917Z" fill="black"/>
</svg>
