<svg width="50" height="50" viewBox="0 0 50 50" fill="none" xmlns="http://www.w3.org/2000/svg">
<circle cx="25" cy="25" r="25" fill="#010F56"/>
<path d="M15.1221 24.9612L21.3721 31.2112C21.5349 31.374 21.7985 31.374 21.9613 31.2112C22.124 31.0485 22.124 30.7848 21.9613 30.6221L16.4225 25.0833L34.5833 25.0833C34.8136 25.0833 35 24.8969 35 24.6666C35 24.4363 34.8136 24.2499 34.5833 24.2499L16.4225 24.2499L21.9613 18.7112C22.124 18.5485 22.124 18.2848 21.9613 18.1221C21.8799 18.0407 21.7733 18 21.6666 18C21.56 18 21.4534 18.0407 21.372 18.1221L15.122 24.3721C14.9593 24.5348 14.9593 24.7985 15.1221 24.9612Z" fill="white"/>
</svg>
