<svg width="50" height="50" viewBox="0 0 50 50" fill="none" xmlns="http://www.w3.org/2000/svg">
<circle cx="25" cy="25" r="25" fill="#010F56"/>
<path d="M34.8779 24.3721L28.6279 18.1221C28.4651 17.9593 28.2015 17.9593 28.0387 18.1221C27.876 18.2849 27.876 18.5485 28.0387 18.7113L33.5775 24.25H15.4167C15.1864 24.25 15 24.4364 15 24.6667C15 24.897 15.1864 25.0834 15.4167 25.0834H33.5775L28.0387 30.6221C27.876 30.7848 27.876 31.0485 28.0387 31.2113C28.1201 31.2926 28.2267 31.3333 28.3334 31.3333C28.44 31.3333 28.5466 31.2926 28.628 31.2113L34.878 24.9613C35.0407 24.7985 35.0407 24.5348 34.8779 24.3721Z" fill="white"/>
</svg>
